HIERARCHY
ROOT Hips
{
	OFFSET 0.000000 0.000000 0.000000
	CHANNELS 6 Xposition Yposition Zposition Zrotation Yrotation Xrotation 
	JOINT Spine1
	{
		OFFSET -0.013727 5.003763 -0.053727
		CHANNELS 3 Zrotation Yrotation Xrotation
		JOINT Spine2
		{
			OFFSET -0.000000 7.125302 -0.029825
			CHANNELS 3 Zrotation Yrotation Xrotation
			JOINT Chest
			{
				OFFSET -0.000001 7.550065 -0.815971
				CHANNELS 3 Zrotation Yrotation Xrotation
				JOINT Neck1
				{
					OFFSET -0.181677 26.311296 -0.553349
					CHANNELS 3 Zrotation Yrotation Xrotation
					JOINT Neck2
					{
						OFFSET -0.000003 7.709399 2.302586
						CHANNELS 3 Zrotation Yrotation Xrotation
						JOINT Head
						{
							OFFSET -0.000005 6.128913 1.953709
							CHANNELS 3 Zrotation Yrotation Xrotation
							JOINT HeadEnd
							{
								OFFSET 0.003598 16.065401 -1.835379
								CHANNELS 3 Zrotation Yrotation Xrotation
								End Site
								{
									OFFSET 0.000000 0.000000 0.000000
								}
							}
							JOINT Jaw
							{
								OFFSET 0.002637 0.475592 3.094940
								CHANNELS 3 Zrotation Yrotation Xrotation
								End Site
								{
									OFFSET 0.000000 0.000000 0.000000
								}
							}
							JOINT LeftEye
							{
								OFFSET 3.206381 5.380207 7.586883
								CHANNELS 3 Zrotation Yrotation Xrotation
								End Site
								{
									OFFSET 0.000000 0.000000 0.000000
								}
							}
							JOINT RightEye
							{
								OFFSET -3.222440 5.361867 7.558233
								CHANNELS 3 Zrotation Yrotation Xrotation
								End Site
								{
									OFFSET 0.000000 0.000000 0.000000
								}
							}
						}
					}
				}
				JOINT LeftShoulder
				{
					OFFSET 1.621652 23.237164 5.113413
					CHANNELS 3 Zrotation Yrotation Xrotation
					JOINT LeftArm
					{
						OFFSET 14.919845 0.000000 -5.502326
						CHANNELS 3 Zrotation Yrotation Xrotation
						JOINT LeftForeArm
						{
							OFFSET 28.739309 0.000002 -0.002588
							CHANNELS 3 Zrotation Yrotation Xrotation
							JOINT LeftHand
							{
								OFFSET 27.093983 -0.000001 0.002610
								CHANNELS 3 Zrotation Yrotation Xrotation
								JOINT LeftHandThumb1
								{
									OFFSET 2.276480 -1.392045 3.191413
									CHANNELS 3 Zrotation Yrotation Xrotation
									JOINT LeftHandThumb2
									{
										OFFSET 4.012843 -1.828125 1.641656
										CHANNELS 3 Zrotation Yrotation Xrotation
										JOINT LeftHandThumb3
										{
											OFFSET 2.798517 0.000000 -0.000004
											CHANNELS 3 Zrotation Yrotation Xrotation
											JOINT LeftHandThumbEnd
											{
												OFFSET 3.180790 -0.000003 0.000003
												CHANNELS 3 Zrotation Yrotation Xrotation
												End Site
												{
													OFFSET 0.000000 0.000000 0.000000
												}
											}
										}
									}
								}
								JOINT LeftHandIndex1
								{
									OFFSET 3.247552 -0.531999 2.296169
									CHANNELS 3 Zrotation Yrotation Xrotation
									JOINT LeftHandIndex2
									{
										OFFSET 6.364580 0.012063 0.178599
										CHANNELS 3 Zrotation Yrotation Xrotation
										JOINT LeftHandIndex3
										{
											OFFSET 3.662366 0.000000 0.000001
											CHANNELS 3 Zrotation Yrotation Xrotation
											JOINT LeftHandIndex4
											{
												OFFSET 2.329243 0.000001 0.000004
												CHANNELS 3 Zrotation Yrotation Xrotation
												JOINT LeftHandIndexEnd
												{
													OFFSET 2.759619 -0.180538 -0.113023
													CHANNELS 3 Zrotation Yrotation Xrotation
													End Site
													{
														OFFSET 0.000000 0.000000 0.000000
													}
												}
											}
										}
									}
								}
								JOINT LeftHandMiddle1
								{
									OFFSET 3.163499 0.240982 1.000332
									CHANNELS 3 Zrotation Yrotation Xrotation
									JOINT LeftHandMiddle2
									{
										OFFSET 6.190778 -0.259277 -1.002548
										CHANNELS 3 Zrotation Yrotation Xrotation
										JOINT LeftHandMiddle3
										{
											OFFSET 4.356523 -0.000005 0.000001
											CHANNELS 3 Zrotation Yrotation Xrotation
											JOINT LeftHandMiddle4
											{
												OFFSET 2.996875 -0.000007 0.000000
												CHANNELS 3 Zrotation Yrotation Xrotation
												JOINT LeftHandMiddleEnd
												{
													OFFSET 2.304294 -0.294572 -0.031740
													CHANNELS 3 Zrotation Yrotation Xrotation
													End Site
													{
														OFFSET 0.000000 0.000000 0.000000
													}
												}
											}
										}
									}
								}
								JOINT LeftHandRing1
								{
									OFFSET 2.882642 -0.053650 -0.322543
									CHANNELS 3 Zrotation Yrotation Xrotation
									JOINT LeftHandRing2
									{
										OFFSET 5.854543 -0.486204 -1.373840
										CHANNELS 3 Zrotation Yrotation Xrotation
										JOINT LeftHandRing3
										{
											OFFSET 4.350580 0.000000 0.000003
											CHANNELS 3 Zrotation Yrotation Xrotation
											JOINT LeftHandRing4
											{
												OFFSET 2.651325 0.000008 0.000002
												CHANNELS 3 Zrotation Yrotation Xrotation
												JOINT LeftHandRingEnd
												{
													OFFSET 1.936111 0.077685 -0.000070
													CHANNELS 3 Zrotation Yrotation Xrotation
													End Site
													{
														OFFSET 0.000000 0.000000 0.000000
													}
												}
											}
										}
									}
								}
								JOINT LeftHandPinky1
								{
									OFFSET 2.865499 -0.310004 -1.600378
									CHANNELS 3 Zrotation Yrotation Xrotation
									JOINT LeftHandPinky2
									{
										OFFSET 5.087854 -1.331142 -1.771231
										CHANNELS 3 Zrotation Yrotation Xrotation
										JOINT LeftHandPinky3
										{
											OFFSET 3.070975 0.000004 0.000001
											CHANNELS 3 Zrotation Yrotation Xrotation
											JOINT LeftHandPinky4
											{
												OFFSET 1.549667 -0.000001 -0.000000
												CHANNELS 3 Zrotation Yrotation Xrotation
												JOINT LeftHandPinkyEnd
												{
													OFFSET 1.944894 -0.157801 0.057219
													CHANNELS 3 Zrotation Yrotation Xrotation
													End Site
													{
														OFFSET 0.000000 0.000000 0.000000
													}
												}
											}
										}
									}
								}
							}
						}
					}
				}
				JOINT RightShoulder
				{
					OFFSET -1.380118 23.180309 5.214157
					CHANNELS 3 Zrotation Yrotation Xrotation
					JOINT RightArm
					{
						OFFSET -15.037197 0.000011 -5.545604
						CHANNELS 3 Zrotation Yrotation Xrotation
						JOINT RightForeArm
						{
							OFFSET -28.736639 0.000003 -0.002597
							CHANNELS 3 Zrotation Yrotation Xrotation
							JOINT RightHand
							{
								OFFSET -27.133619 0.000000 0.002613
								CHANNELS 3 Zrotation Yrotation Xrotation
								JOINT RightHandThumb1
								{
									OFFSET -2.274037 -1.383990 3.163127
									CHANNELS 3 Zrotation Yrotation Xrotation
									JOINT RightHandThumb2
									{
										OFFSET -4.011428 -1.827468 1.640914
										CHANNELS 3 Zrotation Yrotation Xrotation
										JOINT RightHandThumb3
										{
											OFFSET -2.794935 -0.000002 -0.000003
											CHANNELS 3 Zrotation Yrotation Xrotation
											JOINT RightHandThumbEnd
											{
												OFFSET -3.183856 0.000004 -0.000001
												CHANNELS 3 Zrotation Yrotation Xrotation
												End Site
												{
													OFFSET 0.000000 0.000000 0.000000
												}
											}
										}
									}
								}
								JOINT RightHandIndex1
								{
									OFFSET -3.253269 -0.520060 2.282866
									CHANNELS 3 Zrotation Yrotation Xrotation
									JOINT RightHandIndex2
									{
										OFFSET -6.341917 0.012472 0.178265
										CHANNELS 3 Zrotation Yrotation Xrotation
										JOINT RightHandIndex3
										{
											OFFSET -3.654875 -0.000009 -0.000000
											CHANNELS 3 Zrotation Yrotation Xrotation
											JOINT RightHandIndex4
											{
												OFFSET -2.327586 0.000000 0.000000
												CHANNELS 3 Zrotation Yrotation Xrotation
												JOINT RightHandIndexEnd
												{
													OFFSET -2.761789 -0.180657 -0.113079
													CHANNELS 3 Zrotation Yrotation Xrotation
													End Site
													{
														OFFSET 0.000000 0.000000 0.000000
													}
												}
											}
										}
									}
								}
								JOINT RightHandMiddle1
								{
									OFFSET -3.168106 0.246593 1.001030
									CHANNELS 3 Zrotation Yrotation Xrotation
									JOINT RightHandMiddle2
									{
										OFFSET -6.180830 -0.258835 -1.000896
										CHANNELS 3 Zrotation Yrotation Xrotation
										JOINT RightHandMiddle3
										{
											OFFSET -4.348905 -0.000001 -0.000000
											CHANNELS 3 Zrotation Yrotation Xrotation
											JOINT RightHandMiddle4
											{
												OFFSET -3.000243 -0.000004 -0.000003
												CHANNELS 3 Zrotation Yrotation Xrotation
												JOINT RightHandMiddleEnd
												{
													OFFSET -2.302517 -0.294370 -0.031707
													CHANNELS 3 Zrotation Yrotation Xrotation
													End Site
													{
														OFFSET 0.000000 0.000000 0.000000
													}
												}
											}
										}
									}
								}
								JOINT RightHandRing1
								{
									OFFSET -2.885693 -0.067953 -0.308858
									CHANNELS 3 Zrotation Yrotation Xrotation
									JOINT RightHandRing2
									{
										OFFSET -5.854198 -0.486132 -1.373732
										CHANNELS 3 Zrotation Yrotation Xrotation
										JOINT RightHandRing3
										{
											OFFSET -4.338813 -0.000004 -0.000001
											CHANNELS 3 Zrotation Yrotation Xrotation
											JOINT RightHandRing4
											{
												OFFSET -2.654905 -0.000004 0.000003
												CHANNELS 3 Zrotation Yrotation Xrotation
												JOINT RightHandRingEnd
												{
													OFFSET -1.933569 0.077523 -0.000052
													CHANNELS 3 Zrotation Yrotation Xrotation
													End Site
													{
														OFFSET 0.000000 0.000000 0.000000
													}
												}
											}
										}
									}
								}
								JOINT RightHandPinky1
								{
									OFFSET -2.866429 -0.342798 -1.584146
									CHANNELS 3 Zrotation Yrotation Xrotation
									JOINT RightHandPinky2
									{
										OFFSET -5.091370 -1.332054 -1.772385
										CHANNELS 3 Zrotation Yrotation Xrotation
										JOINT RightHandPinky3
										{
											OFFSET -3.062665 -0.000007 0.000000
											CHANNELS 3 Zrotation Yrotation Xrotation
											JOINT RightHandPinky4
											{
												OFFSET -1.546527 0.000007 -0.000003
												CHANNELS 3 Zrotation Yrotation Xrotation
												JOINT RightHandPinkyEnd
												{
													OFFSET -1.945122 -0.157721 0.057211
													CHANNELS 3 Zrotation Yrotation Xrotation
													End Site
													{
														OFFSET 0.000000 0.000000 0.000000
													}
												}
											}
										}
									}
								}
							}
						}
					}
				}
			}
		}
	}
	JOINT LeftLeg
	{
		OFFSET 10.043214 -8.434526 2.595655
		CHANNELS 3 Zrotation Yrotation Xrotation
		JOINT LeftShin
		{
			OFFSET -0.000001 -43.221752 -0.802913
			CHANNELS 3 Zrotation Yrotation Xrotation
			JOINT LeftFoot
			{
				OFFSET 0.000001 -42.155094 -3.481524
				CHANNELS 3 Zrotation Yrotation Xrotation
				JOINT LeftToeBase
				{
					OFFSET -0.000000 -5.059475 13.231529
					CHANNELS 3 Zrotation Yrotation Xrotation
					JOINT LeftToeEnd
					{
						OFFSET -0.009606 -1.647615 6.513017
						CHANNELS 3 Zrotation Yrotation Xrotation
						End Site
						{
							OFFSET 0.000000 0.000000 0.000000
						}
					}
				}
			}
		}
	}
	JOINT RightLeg
	{
		OFFSET -10.047277 -8.295259 2.620317
		CHANNELS 3 Zrotation Yrotation Xrotation
		JOINT RightShin
		{
			OFFSET -0.000000 -43.362209 -0.805555
			CHANNELS 3 Zrotation Yrotation Xrotation
			JOINT RightFoot
			{
				OFFSET 0.000002 -42.117393 -3.478399
				CHANNELS 3 Zrotation Yrotation Xrotation
				JOINT RightToeBase
				{
					OFFSET -0.000001 -5.079609 13.284198
					CHANNELS 3 Zrotation Yrotation Xrotation
					JOINT RightToeEnd
					{
						OFFSET 0.009532 -1.634384 6.460591
						CHANNELS 3 Zrotation Yrotation Xrotation
						End Site
						{
							OFFSET 0.000000 0.000000 0.000000
						}
					}
				}
			}
		}
	}
}
MOTION
Frames: 4
Frame Time: 0.033333
52.011646 88.464180 71.361336 2.779930 -11.567238 0.725514 -0.883813 0.804110 2.090891 -0.545573 0.381346 -3.991544 -2.331876 -0.502197 12.756924 -4.631657 5.432066 12.034244 2.848417 13.625137 -3.271938 -5.403870 15.293756 -14.279066 0.000077 -0.000023 0.000006 0.014587 -0.062121 -0.019844 0.752255 -3.792710 -10.764071 -0.733972 3.666969 -10.761906 2.094386 -13.033397 9.637317 -17.950756 -25.095873 -61.351070 -179.028900 -72.133308 -179.955246 1.186916 -8.646968 -3.320909 -5.882100 9.861279 0.702588 -10.936859 -0.360575 7.156197 0.000002 8.774811 -0.000001 -17.024916 17.073235 5.429197 -1.844031 2.498502 -2.507276 -10.163589 4.678940 4.621104 -20.975992 -0.000003 0.000002 -21.226250 2.451692 -3.593994 0.000000 -0.000005 -0.000000 -1.362681 2.240797 -0.746323 -21.334888 0.584907 3.008320 -13.821197 -0.000002 0.000002 -23.887129 -0.249081 -0.839481 -61.193512 2.483707 -1.589485 -0.294026 1.679685 0.833255 -14.218192 0.093215 1.300577 -34.211998 -0.287565 0.967169 -20.033175 0.964532 1.212842 0.000000 0.000000 -0.000000 -3.440387 0.788232 0.501655 -15.928167 -3.167306 2.999702 -6.338817 -0.000001 0.000001 -18.123413 3.648175 -4.905662 -0.000004 -0.000001 -0.000002 -7.663720 13.837621 8.255697 62.458004 52.739433 -0.644145 179.221863 42.311199 179.552078 0.379006 5.412622 -1.278604 2.243539 -5.255033 -3.180155 14.282877 -0.826593 6.952495 -0.000002 -12.690591 -0.000001 16.242048 -17.828444 2.784771 1.665666 -1.955920 -2.878297 4.727793 -4.170582 4.993918 11.020512 0.000004 -0.000001 12.109032 -3.735708 -2.866779 -0.000000 -0.000000 0.000000 1.291983 -1.928547 -1.498088 14.800113 0.567468 3.865604 14.242550 -1.341734 -6.660648 19.631939 0.143926 -0.648242 50.475658 -0.581698 -6.001064 0.353027 -1.511149 -0.031938 20.222767 3.684307 2.316628 18.787245 0.000004 -0.000000 10.751611 -0.479868 1.397904 -0.000000 0.000000 -0.000000 3.273804 0.305947 -0.580110 21.486788 11.830361 2.266131 8.162915 0.000001 0.000000 18.399050 -3.798978 -4.940567 0.000003 0.000000 -0.000001 10.172318 30.180370 -34.388920 -0.453960 -0.429929 47.688702 -14.909771 -9.412215 -7.236957 1.610788 -1.860967 -0.995544 -0.000000 0.000000 0.000002 -25.541920 -15.369387 -18.728748 0.614559 0.982177 43.369213 22.198652 7.640201 -18.524199 -1.419729 0.997779 -2.437544 0.000000 -0.000001 -0.000001 
52.070236 88.530357 71.525101 2.828805 -11.283526 0.788974 -0.898697 0.796243 2.078273 -0.539076 0.406849 -4.000692 -2.333698 -0.494162 12.727558 -4.675767 5.430593 11.991963 2.827322 13.563068 -3.290011 -5.427819 15.245557 -14.234694 0.000077 -0.000023 0.000006 0.010525 -0.055782 -0.024718 0.752695 -3.781527 -10.756817 -0.737328 3.668388 -10.758636 2.108836 -13.049758 9.627372 -17.672169 -24.923923 -61.168247 -178.800034 -72.423462 179.836624 1.207151 -8.697688 -3.222281 -5.882099 9.861280 0.702590 -10.936858 -0.360574 7.156196 0.000001 8.774816 -0.000001 -17.007301 17.081163 5.416892 -1.844032 2.498502 -2.507276 -10.163589 4.678940 4.621105 -20.975992 -0.000001 0.000002 -21.226250 2.451691 -3.593994 0.000000 -0.000005 -0.000000 -1.362678 2.240797 -0.746323 -21.334887 0.584909 3.008319 -13.821197 -0.000001 0.000002 -23.887131 -0.249079 -0.839480 -61.160038 2.486188 -1.589252 -0.294026 1.679688 0.833254 -14.218194 0.093213 1.300578 -34.211998 -0.287564 0.967169 -20.033175 0.964535 1.212841 -0.000001 -0.000001 0.000000 -3.440384 0.788234 0.501656 -15.928165 -3.167306 2.999703 -6.338815 -0.000002 0.000001 -18.123411 3.648177 -4.905662 -0.000004 -0.000000 -0.000001 -7.800712 13.809971 8.287917 62.372063 52.588955 -0.834037 179.219009 42.105492 179.575821 0.297936 5.316345 -1.262172 2.243538 -5.255032 -3.180154 14.282875 -0.826594 6.952495 -0.000001 -12.690590 0.000001 16.289656 -17.847980 2.793353 1.665666 -1.955920 -2.878296 4.727794 -4.170584 4.993919 11.020513 0.000002 -0.000001 12.109035 -3.735710 -2.866779 0.000001 -0.000000 -0.000000 1.291986 -1.928548 -1.498087 14.800107 0.567467 3.865602 14.242554 -1.341735 -6.660646 19.631941 0.143925 -0.648244 50.513008 -0.592438 -6.000169 0.353028 -1.511149 -0.031941 20.222771 3.684304 2.316628 18.787247 0.000003 -0.000001 10.751612 -0.479868 1.397903 -0.000000 0.000000 0.000000 3.273806 0.305947 -0.580109 21.486790 11.830360 2.266130 8.162916 0.000001 -0.000000 18.399055 -3.798980 -4.940567 0.000003 -0.000001 -0.000001 9.988224 29.998468 -34.414024 -0.455436 -0.434610 47.597866 -14.892758 -9.491412 -7.265247 1.609742 -1.857421 -0.964935 -0.000000 0.000000 0.000002 -25.685848 -15.464727 -18.351118 0.618254 0.974075 42.989056 22.376839 7.466404 -18.496899 -1.419671 1.004065 -2.385341 0.000000 0.000000 -0.000001 
52.110023 88.588692 71.733345 2.873015 -11.028274 0.864703 -0.904787 0.789325 2.056155 -0.539013 0.451646 -3.996811 -2.336952 -0.507023 12.696454 -4.725266 5.423121 11.942265 2.810177 13.529770 -3.296976 -5.467629 15.206116 -14.201563 0.000077 -0.000024 0.000006 0.014657 -0.054894 -0.016433 0.750982 -3.780885 -10.753680 -0.739151 3.677895 -10.757877 2.124047 -13.078915 9.576307 -17.371346 -24.737051 -61.012848 -178.571915 -72.782509 179.625183 1.169891 -8.733309 -3.058560 -5.882104 9.861279 0.702591 -10.936858 -0.360575 7.156198 0.000001 8.774813 -0.000001 -16.970215 17.055128 5.400536 -1.844031 2.498503 -2.507275 -10.163589 4.678938 4.621104 -20.975998 -0.000006 0.000003 -21.226255 2.451694 -3.593992 0.000000 -0.000006 -0.000000 -1.362680 2.240796 -0.746322 -21.334892 0.584908 3.008321 -13.821197 -0.000003 0.000003 -23.887133 -0.249081 -0.839479 -61.110329 2.486221 -1.610011 -0.294023 1.679686 0.833257 -14.218194 0.093215 1.300579 -34.211998 -0.287566 0.967172 -20.033180 0.964535 1.212843 0.000000 0.000000 -0.000000 -3.440385 0.788231 0.501653 -15.928167 -3.167307 2.999702 -6.338818 0.000000 0.000002 -18.123415 3.648175 -4.905661 -0.000005 -0.000000 -0.000002 -7.965925 13.791954 8.286285 62.333252 52.446911 -1.016643 179.181076 41.933685 179.590149 0.220754 5.161419 -1.328578 2.243540 -5.255032 -3.180155 14.282877 -0.826594 6.952495 -0.000001 -12.690588 0.000001 16.326086 -17.828316 2.796553 1.665663 -1.955920 -2.878297 4.727794 -4.170583 4.993918 11.020513 0.000003 -0.000002 12.109031 -3.735708 -2.866779 -0.000000 -0.000000 0.000000 1.291985 -1.928547 -1.498090 14.800111 0.567468 3.865602 14.242551 -1.341734 -6.660650 19.631937 0.143926 -0.648244 50.537983 -0.610217 -5.992748 0.353028 -1.511150 -0.031940 20.222769 3.684304 2.316626 18.787245 0.000004 -0.000001 10.751610 -0.479868 1.397903 -0.000000 0.000000 0.000000 3.273804 0.305946 -0.580110 21.486790 11.830361 2.266129 8.162915 0.000002 -0.000001 18.399052 -3.798978 -4.940567 0.000003 -0.000001 -0.000001 9.841101 29.831745 -34.415634 -0.458722 -0.439420 47.537689 -14.886251 -9.583476 -7.339189 1.609738 -1.852482 -0.923076 -0.000000 -0.000000 0.000002 -25.813505 -15.555985 -17.974930 0.623565 0.988090 42.625916 22.555914 7.321599 -18.507523 -1.421488 1.003859 -2.346250 -0.000000 0.000001 -0.000001 
52.159195 88.627670 71.884262 2.907746 -10.803932 0.946254 -0.915296 0.814854 2.051521 -0.535024 0.438798 -4.018704 -2.342582 -0.496711 12.695210 -4.792055 5.436937 11.877729 2.811021 13.514246 -3.303496 -5.478514 15.145928 -14.172502 0.000077 -0.000024 0.000006 0.013266 -0.054924 -0.019597 0.754243 -3.779068 -10.767609 -0.736473 3.671472 -10.769751 2.149066 -13.091650 9.539121 -17.087288 -24.541229 -60.819294 -178.591629 -73.081543 179.618942 1.053465 -8.746045 -2.849180 -5.882102 9.861277 0.702590 -10.936860 -0.360575 7.156199 0.000001 8.774813 -0.000002 -16.964624 17.072449 5.405346 -1.844031 2.498503 -2.507276 -10.163589 4.678938 4.621104 -20.975996 -0.000004 0.000003 -21.226255 2.451692 -3.593993 0.000000 -0.000005 -0.000000 -1.362682 2.240795 -0.746323 -21.334892 0.584907 3.008321 -13.821197 -0.000003 0.000003 -23.887133 -0.249080 -0.839480 -61.105736 2.498316 -1.614632 -0.294023 1.679685 0.833255 -14.218194 0.093213 1.300578 -34.212006 -0.287565 0.967170 -20.033182 0.964533 1.212843 -0.000001 0.000000 0.000000 -3.440385 0.788232 0.501656 -15.928169 -3.167309 2.999704 -6.338817 -0.000002 0.000002 -18.123415 3.648178 -4.905661 -0.000005 -0.000001 -0.000002 -8.105832 13.769063 8.293496 62.176300 52.320648 -1.214459 179.234726 41.786713 179.640488 0.153698 5.003760 -1.412159 2.243540 -5.255031 -3.180155 14.282877 -0.826595 6.952496 -0.000001 -12.690586 0.000001 16.344198 -17.816072 2.794477 1.665664 -1.955920 -2.878297 4.727790 -4.170583 4.993919 11.020512 0.000003 -0.000001 12.109032 -3.735709 -2.866779 0.000001 -0.000001 -0.000000 1.291986 -1.928548 -1.498089 14.800113 0.567467 3.865602 14.242553 -1.341733 -6.660650 19.631939 0.143926 -0.648244 50.567638 -0.619615 -5.967337 0.353027 -1.511149 -0.031940 20.222769 3.684304 2.316627 18.787245 0.000004 -0.000002 10.751610 -0.479868 1.397903 -0.000000 0.000000 0.000000 3.273804 0.305946 -0.580110 21.486788 11.830360 2.266128 8.162916 0.000001 0.000000 18.399054 -3.798979 -4.940567 0.000003 -0.000001 -0.000001 9.692910 29.655474 -34.480324 -0.466238 -0.452920 47.519390 -14.846493 -9.607250 -7.416629 1.604692 -1.844370 -0.885680 0.000000 -0.000000 0.000002 -25.908123 -15.632851 -17.706228 0.605359 1.000901 42.347313 22.717793 7.186151 -18.512230 -1.420206 1.010162 -2.307340 0.000000 -0.000001 -0.000001 
